<?xml version="1.0" encoding="UTF-8" standalone="no"?>
<svg
   xmlns:dc="http://purl.org/dc/elements/1.1/"
   xmlns:cc="http://creativecommons.org/ns#"
   xmlns:rdf="http://www.w3.org/1999/02/22-rdf-syntax-ns#"
   xmlns:svg="http://www.w3.org/2000/svg"
   xmlns="http://www.w3.org/2000/svg"
   xmlns:sodipodi="http://sodipodi.sourceforge.net/DTD/sodipodi-0.dtd"
   xmlns:inkscape="http://www.inkscape.org/namespaces/inkscape"
   height="354pt"
   viewBox="0 -47 354.98667 354"
   width="354pt"
   version="1.1"
   id="svg24"
   sodipodi:docname="noise_suppressed.svg"
   inkscape:version="1.0.2 (e86c870879, 2021-01-15)">
  <metadata
     id="metadata30">
    <rdf:RDF>
      <cc:Work
         rdf:about="">
        <dc:format>image/svg+xml</dc:format>
        <dc:type
           rdf:resource="http://purl.org/dc/dcmitype/StillImage" />
        <dc:title></dc:title>
      </cc:Work>
    </rdf:RDF>
  </metadata>
  <defs
     id="defs28" />
  <sodipodi:namedview
     pagecolor="#ffffff"
     bordercolor="#666666"
     borderopacity="1"
     objecttolerance="10"
     gridtolerance="10"
     guidetolerance="10"
     inkscape:pageopacity="0"
     inkscape:pageshadow="2"
     inkscape:window-width="1466"
     inkscape:window-height="1072"
     id="namedview26"
     showgrid="false"
     inkscape:zoom="2.1355932"
     inkscape:cx="236"
     inkscape:cy="235.53175"
     inkscape:window-x="1217"
     inkscape:window-y="415"
     inkscape:window-maximized="0"
     inkscape:current-layer="svg24" />
  <path
     d="m6.828125 102.894531c-3.773437 0-6.828125 3.054688-6.828125 6.824219v34.132812c0 3.773438 3.054688 6.828126 6.828125 6.828126 3.769531 0 6.824219-3.054688 6.824219-6.828126v-34.132812c0-3.769531-3.054688-6.824219-6.824219-6.824219zm0 0"
     id="path2" />
  <path
     d="m40.984375 74.941406c-3.769531 0-6.828125 3.058594-6.828125 6.828125v94.515625c0 3.773438 3.058594 6.828125 6.828125 6.828125s6.828125-3.054687 6.828125-6.828125v-94.515625c0-3.769531-3.058594-6.828125-6.828125-6.828125zm0 0"
     id="path4" />
  <path
     d="m75.09375 27.800781c-3.769531 0-6.828125 3.054688-6.828125 6.824219v191.148438c0 3.769531 3.058594 6.828124 6.828125 6.828124s6.828125-3.058593 6.828125-6.828124v-191.148438c0-3.769531-3.058594-6.824219-6.828125-6.824219zm0 0"
     id="path6" />
  <path
     d="m109.226562 61.933594c-3.769531 0-6.828124 3.054687-6.828124 6.828125v116.050781c0 3.769531 3.058593 6.828125 6.828124 6.828125 3.769532 0 6.828126-3.058594 6.828126-6.828125v-116.050781c0-3.773438-3.058594-6.828125-6.828126-6.828125zm0 0"
     id="path8" />
  <path
     d="m212.292969 45.40625c-3.769531 0-6.824219 3.054688-6.824219 6.828125v153.589844c0 3.769531 3.054688 6.824219 6.824219 6.824219s6.828125-3.054688 6.828125-6.824219v-153.589844c0-3.773437-3.058594-6.828125-6.828125-6.828125zm0 0"
     id="path10" />
  <path
     d="m279.894531 55.105469c-3.769531 0-6.828125 3.058593-6.828125 6.828125v136.53125c0 3.773437 3.058594 6.828125 6.828125 6.828125s6.824219-3.054688 6.824219-6.828125v-136.53125c0-3.769532-3.054688-6.828125-6.824219-6.828125zm0 0"
     id="path12" />
  <path
     d="m314.027344 89.238281c-3.769532 0-6.828125 3.058594-6.828125 6.828125v68.265625c0 3.769531 3.058593 6.828125 6.828125 6.828125 3.769531 0 6.824218-3.058594 6.824218-6.828125v-68.265625c0-3.769531-3.054687-6.828125-6.824218-6.828125zm0 0"
     id="path14" />
  <path
     d="m245.761719.492188c-3.773438 0-6.828125 3.058593-6.828125 6.828124v245.757813c0 3.773437 3.054687 6.828125 6.828125 6.828125 3.769531 0 6.824219-3.054688 6.824219-6.828125v-245.757813c0-3.769531-3.054688-6.828124-6.824219-6.828124zm0 0"
     id="path16" />
  <path
     d="m143.359375 109.71875c-3.769531 0-6.824219 3.058594-6.824219 6.828125v27.304687c0 3.773438 3.054688 6.828126 6.824219 6.828126s6.828125-3.054688 6.828125-6.828126v-27.304687c0-3.769531-3.058594-6.828125-6.828125-6.828125zm0 0"
     id="path18" />
  <path
     d="m348.160156 107.433594c-3.769531 0-6.828125 3.054687-6.828125 6.824218v29.539063c0 3.769531 3.058594 6.828125 6.828125 6.828125 3.769532 0 6.828125-3.058594 6.828125-6.828125v-29.539063c0-3.769531-3.058593-6.824218-6.828125-6.824218zm0 0"
     id="path20" />
  <path
     d="m176.851562 94.417969c-3.773437 0-6.828124 3.054687-6.828124 6.824219v55.570312c0 3.769531 3.054687 6.828125 6.828124 6.828125 3.769532 0 6.824219-3.058594 6.824219-6.828125v-55.570312c0-3.769532-3.054687-6.824219-6.824219-6.824219zm0 0"
     id="path22" />
  <path
     style="fill:#00ff00;stroke-width:0.468254"
     d="M 6.3857016,262.72813 C 4.3206271,261.96777 2.1468931,260.05848 1.0117674,258.00794 0.31453443,256.74843 0.23412698,254.03707 0.23412698,231.78571 V 206.96825 L 1.5176824,204.7848 c 2.2933758,-3.90126 6.4106102,-5.461 10.3968246,-3.93865 2.514678,0.96036 5.255888,3.86561 5.639613,5.9771 0.154902,0.85237 0.219488,12.64554 0.143522,26.20705 l -0.138118,24.65729 -1.454408,1.79906 c -2.669162,3.30169 -6.2827749,4.50685 -9.7194144,3.24148 z"
     id="path32"
     transform="matrix(0.7520904,0,0,0.7520904,0,-47.493335)" />
  <path
     style="fill:#00ff00;stroke-width:0.468254"
     d="m 50.656578,305.25632 c -1.811512,-0.90271 -2.769932,-1.77715 -3.720908,-3.39484 l -1.280908,-2.17894 -0.128795,-63.44841 c -0.08784,-43.27259 0.02856,-64.18505 0.366053,-65.76497 1.79033,-8.38116 12.598605,-10.01961 16.440413,-2.49224 0.865698,1.69619 0.88798,3.64375 0.769617,67.2681 l -0.121891,65.52135 -1.431905,1.79935 c -1.661198,2.08749 -4.922492,3.9065 -7.003946,3.9065 -0.796252,0 -2.545731,-0.54715 -3.88773,-1.2159 z"
     id="path34"
     transform="matrix(0.7520904,0,0,0.7520904,0,-47.493335)" />
  <path
     style="fill:#00ff00;stroke-width:0.468254"
     d="m 96.104178,371.25385 c -2.102113,-1.03621 -4.190295,-3.53721 -4.779113,-5.72392 -0.339759,-1.26176 -0.454589,-41.60242 -0.370895,-130.29781 0.111843,-118.52571 0.181214,-128.57895 0.896181,-129.87498 3.302733,-5.986877 11.410119,-6.561017 15.210469,-1.07716 l 1.33997,1.93356 0.11956,129.47635 0.11956,129.47635 -1.00648,2.07911 c -1.9894,4.10955 -7.46334,6.01273 -11.529252,4.0085 z"
     id="path36"
     transform="matrix(0.7520904,0,0,0.7520904,0,-47.493335)" />
  <path
     style="fill:#00ff00;stroke-width:0.468254"
     d="m 141.40112,316.65675 c -1.21787,-0.61599 -2.66909,-1.89689 -3.49406,-3.08399 l -1.41103,-2.03041 v -79.67991 c 0,-78.83798 0.01,-79.69669 0.93651,-81.26914 0.51508,-0.87409 1.74624,-2.24373 2.73592,-3.04365 1.61425,-1.30475 2.12373,-1.45441 4.95098,-1.45441 3.60095,0 5.60735,1.03414 7.57358,3.90357 l 1.12841,1.64675 0.13786,78.93516 c 0.0962,55.11129 -0.0135,79.45876 -0.36366,80.67 -1.02537,3.54688 -4.80059,6.42663 -8.45475,6.44931 -0.9112,0.006 -2.59409,-0.46382 -3.73976,-1.04328 z"
     id="path38"
     transform="matrix(0.7520904,0,0,0.7520904,0,-47.493335)" />
  <path
     style="fill:#00ff00;stroke-width:0.468254"
     d="m 188.06011,262.83608 c -2.44832,-0.6759 -5.12959,-3.44208 -5.84619,-6.03132 -0.4219,-1.52444 -0.53744,-7.2279 -0.43571,-21.50714 0.13296,-18.66064 0.17734,-19.50694 1.11736,-21.30556 3.01265,-5.76432 11.42194,-6.10513 15.05827,-0.61026 l 1.28822,1.94663 v 20.94823 20.94822 l -1.40476,1.98872 c -2.30718,3.26626 -6.04756,4.65209 -9.77719,3.62248 z"
     id="path40"
     transform="matrix(0.7520904,0,0,0.7520904,0,-47.493335)" />
  <path
     style="fill:#00ff00;stroke-width:0.468254"
     d="m 233.65873,280.24409 c -0.90139,-0.15892 -2.0841,-0.53062 -2.62824,-0.826 -1.67749,-0.91061 -3.86288,-3.74538 -4.38649,-5.68993 -0.33856,-1.25732 -0.4576,-14.17102 -0.37089,-40.23589 l 0.12768,-38.38431 1.41103,-2.03017 c 1.62704,-2.34097 4.78428,-4.14224 7.23383,-4.12703 3.65323,0.0227 7.42658,2.90029 8.45682,6.44931 0.34642,1.19336 0.45993,13.80325 0.36367,40.40021 l -0.13995,38.66536 -1.2857,1.94261 c -1.92349,2.90628 -5.41182,4.42997 -8.78176,3.83584 z"
     id="path42"
     transform="matrix(0.7520904,0,0,0.7520904,0,-47.493335)" />
  <path
     style="fill:#00ff00;stroke-width:0.468254"
     d="m 280.01587,345.26993 c -2.45733,-0.7201 -4.68738,-2.63406 -5.67777,-4.87299 -0.85899,-1.94189 -0.88055,-4.94474 -0.7638,-106.37878 l 0.12014,-104.38049 1.12841,-1.64677 c 4.36972,-6.37707 13.98195,-4.93872 15.95468,2.38742 0.32894,1.2216 0.44575,35.03291 0.3635,105.21879 l -0.12119,103.41876 -1.24178,2.11218 c -2.00094,3.40343 -6.20104,5.18544 -9.76219,4.14188 z"
     id="path44"
     transform="matrix(0.7520904,0,0,0.7520904,0,-47.493335)" />
  <path
     style="fill:#00ff00;stroke-width:0.468254"
     d="m 323.32937,407.69433 c -2.27823,-1.08524 -3.69922,-2.57027 -4.6602,-4.87021 -0.64955,-1.55458 -0.72366,-18.84641 -0.71444,-166.69202 0.01,-159.02591 0.0412,-165.025544 0.86987,-166.849884 1.76213,-3.879315 5.94499,-5.965301 9.88121,-4.927744 2.70724,0.713609 4.80142,2.332016 5.91282,4.569494 0.86325,1.737917 0.88534,5.911863 0.88534,167.310164 V 401.7619 l -0.97821,1.87302 c -2.10382,4.02826 -7.30388,5.91362 -11.19639,4.05941 z"
     id="path46"
     transform="matrix(0.7520904,0,0,0.7520904,0,-47.493335)" />
  <path
     style="fill:#00ff00;stroke-width:0.468254"
     d="m 369.29092,335.31307 c -2.33157,-0.86222 -3.96401,-2.39264 -5.04082,-4.72577 -0.83119,-1.80095 -0.86445,-5.43108 -0.86445,-94.35317 0,-89.32328 0.0299,-92.54595 0.87525,-94.40754 1.49607,-3.29444 6.08169,-5.79439 9.27116,-5.05436 2.49209,0.57821 5.04591,2.41454 6.22694,4.47749 l 1.1656,2.03599 v 92.98514 92.98513 l -1.40476,2.26215 c -2.25243,3.62719 -6.46066,5.18845 -10.22892,3.79494 z"
     id="path48"
     transform="matrix(0.7520904,0,0,0.7520904,0,-47.493335)" />
  <path
     style="fill:#00ff00;stroke-width:0.468254"
     d="m 413.96365,289.52825 c -1.144,-0.59609 -2.72436,-1.8935 -3.5119,-2.88311 l -1.43191,-1.79931 -0.12357,-47.95859 c -0.12088,-46.91918 -0.10357,-47.99777 0.79892,-49.76678 3.26095,-6.39201 11.78847,-6.68327 15.40827,-0.52629 l 1.24178,2.11218 v 47.5645 47.5645 l -1.40476,2.26215 c -2.47485,3.98536 -7.12385,5.43838 -10.97683,3.43075 z"
     id="path50"
     transform="matrix(0.7520904,0,0,0.7520904,0,-47.493335)" />
  <path
     style="fill:#00ff00;stroke-width:0.468254"
     d="m 460.7619,262.84155 c -2.31629,-0.65661 -4.53509,-2.47476 -5.62337,-4.60796 -0.89094,-1.7464 -0.93218,-2.78476 -0.93218,-23.47186 0,-20.81227 0.0367,-21.72033 0.95297,-23.61321 0.54203,-1.11967 1.78679,-2.54641 2.88656,-3.30855 1.61629,-1.12009 2.40677,-1.33997 4.81733,-1.33997 3.55832,0 6.23277,1.55762 7.83984,4.566 1.05018,1.96589 1.06454,2.22796 1.20747,22.03447 0.0992,13.74758 -0.0234,20.85436 -0.39024,22.62144 -1.08628,5.23259 -5.98322,8.47327 -10.75838,7.11964 z"
     id="path52"
     transform="matrix(0.7520904,0,0,0.7520904,0,-47.493335)" />
</svg>
