<svg id="SvgjsSvg1001" width="288" height="288" xmlns="http://www.w3.org/2000/svg" version="1.1" xmlns:xlink="http://www.w3.org/1999/xlink" xmlns:svgjs="http://svgjs.com/svgjs"><circle id="SvgjsCircle1011" r="144" cx="144" cy="144" fill="#fb5eac" transform="matrix(0.9167,0,0,0.9167,11.995200000000011,11.995200000000011)"></circle><defs id="SvgjsDefs1002"></defs><g id="SvgjsG1008" transform="matrix(0.46520000000000006,0,0,0.46520000000000006,77.01119999999999,77.01119999999999)"><svg xmlns="http://www.w3.org/2000/svg" enable-background="new 0 0 512 512" viewBox="0 0 512 512" width="288" height="288"><path d="M492,236H276V20c0-11.046-8.954-20-20-20c-11.046,0-20,8.954-20,20v216H20c-11.046,0-20,8.954-20,20s8.954,20,20,20h216
			v216c0,11.046,8.954,20,20,20s20-8.954,20-20V276h216c11.046,0,20-8.954,20-20C512,244.954,503.046,236,492,236z" fill="#ffffff" class="color000 svgShape"></path></svg></g></svg>